<svg xmlns="http://www.w3.org/2000/svg" viewBox="0 0 500 500"><g id="freepik--Shadow--inject-61"><path id="freepik--shadow--inject-61" d="M67.14,378.77c-29.26,16.89-29.26,44.28,0,61.17s76.7,16.9,106,0,29.26-44.28,0-61.17S96.4,361.87,67.14,378.77Z" style="fill:#ebebeb"></path></g><g id="freepik--speech-bubble--inject-61"><g id="freepik--Bubble--inject-61"><g id="freepik--Facebook--inject-61"><path d="M175.76,152.07a1.19,1.19,0,0,0-1.2.12,3.71,3.71,0,0,0-1.69,2.92,1.17,1.17,0,0,0,.5,1.09l1.49.87a1.19,1.19,0,0,0,1.19-.12,3.75,3.75,0,0,0,1.69-2.92,1.19,1.19,0,0,0-.5-1.1" style="fill:#BA68C8"></path><path d="M176.05,153.05a3.75,3.75,0,0,0-1.69,2.93c0,1.07.76,1.51,1.69,1a3.75,3.75,0,0,0,1.69-2.92C177.74,153,177,152.51,176.05,153.05Z" style="fill:#BA68C8"></path><path d="M175.76,152.07l1.48.86a1.19,1.19,0,0,0-1.19.12,3.7,3.7,0,0,0-1.44,1.77l-1.49-.87a3.67,3.67,0,0,1,1.44-1.76A1.19,1.19,0,0,1,175.76,152.07Z" style="fill:#fff;opacity:0.4"></path><path d="M174.83,157.05l-1.46-.85a1.17,1.17,0,0,1-.5-1.09l1.49.87A1.19,1.19,0,0,0,174.83,157.05Z" style="opacity:0.2"></path><path d="M173.12,154l1.49.87a3,3,0,0,0-.25,1.16h0l-1.49-.87A3.11,3.11,0,0,1,173.12,154Z" style="opacity:0.1"></path></g><g id="freepik--facebook--inject-61"><path d="M166.82,148.19a1.89,1.89,0,0,0-1.89.18,5.9,5.9,0,0,0-2.66,4.62,1.87,1.87,0,0,0,.78,1.73l1.73,1a1.89,1.89,0,0,0,1.89-.18,5.91,5.91,0,0,0,2.67-4.62,1.89,1.89,0,0,0-.78-1.73" style="fill:#BA68C8"></path><path d="M166.67,149.38A5.91,5.91,0,0,0,164,154c0,1.7,1.2,2.39,2.67,1.54a5.91,5.91,0,0,0,2.67-4.62C169.34,149.22,168.14,148.53,166.67,149.38Z" style="fill:#BA68C8"></path><path d="M166.82,148.19l1.74,1a1.87,1.87,0,0,0-1.89.19,5.79,5.79,0,0,0-2.28,2.79l-1.73-1a5.85,5.85,0,0,1,2.27-2.8A1.89,1.89,0,0,1,166.82,148.19Z" style="fill:#fff;opacity:0.4"></path><path d="M164.75,155.7l-1.7-1a1.87,1.87,0,0,1-.78-1.73l1.73,1A1.89,1.89,0,0,0,164.75,155.7Z" style="opacity:0.2"></path><path d="M162.66,151.17l1.73,1A4.9,4.9,0,0,0,164,154h0l-1.73-1A4.89,4.89,0,0,1,162.66,151.17Z" style="opacity:0.1"></path></g><g id="freepik--facebook--inject-61"><path d="M159.66,139a2.57,2.57,0,0,0-2.59.26,8.09,8.09,0,0,0-3.67,6.34,2.58,2.58,0,0,0,1.08,2.38c.18.1,1.56.89,1.73,1a2.59,2.59,0,0,0,2.59-.26,8.11,8.11,0,0,0,3.66-6.35,2.59,2.59,0,0,0-1.07-2.37" style="fill:#BA68C8"></path><path d="M158.8,140.29a8.11,8.11,0,0,0-3.66,6.34c0,2.34,1.64,3.29,3.66,2.12a8.08,8.08,0,0,0,3.66-6.35C162.46,140.07,160.82,139.12,158.8,140.29Z" style="fill:#BA68C8"></path><path d="M159.66,139l1.73,1a2.57,2.57,0,0,0-2.59.26,8,8,0,0,0-3.13,3.84l-1.73-1a7.93,7.93,0,0,1,3.13-3.83A2.57,2.57,0,0,1,159.66,139Z" style="fill:#fff;opacity:0.4"></path><path d="M156.16,149l-1.68-1a2.58,2.58,0,0,1-1.08-2.38l1.74,1A2.63,2.63,0,0,0,156.16,149Z" style="opacity:0.2"></path><path d="M153.94,143.12l1.73,1a6.73,6.73,0,0,0-.53,2.5h0l-1.74-1A6.84,6.84,0,0,1,153.94,143.12Z" style="opacity:0.1"></path></g><path d="M167.27,88.32c-1.84-1.08-4.25-1-6.88.53a13.93,13.93,0,0,0-1.41,1,5.15,5.15,0,0,0-2.1-3.84c-.45-.28-2.26-1.34-2.73-1.59a4.28,4.28,0,0,0-4.23.4,13,13,0,0,0-4.59,5.14,5.83,5.83,0,0,0-1.45-1.24l-2.56-1.49c-1.84-1.07-4.24-1-6.87.55-5.57,3.21-10.11,11.64-10.43,19.14a13.25,13.25,0,0,0-4.35,1.64c-8.1,4.68-14.67,17.23-14.67,28,0,5.73,1.85,9.82,4.79,11.7.51.32,2.48,1.45,3,1.71,2.55,1.41,5.86,1.24,9.47-.84a21,21,0,0,0,4-3.09,7,7,0,0,0,1.91,1.66l2.54,1.46c2.19,1.28,5,1.18,8.19-.63,4.17-2.41,7.86-7.26,10.13-12.76a7.28,7.28,0,0,0,5.65-1c5.28-3.05,9.64-10.78,10.35-18,4.78-4,8.37-11.76,8.37-18.51,0-4.23-1.41-7.2-3.64-8.47Z" style="fill:#BA68C8"></path><path d="M167.27,88.32c-1.84-1.08-4.25-1-6.88.53a13.93,13.93,0,0,0-1.41,1,5.15,5.15,0,0,0-2.1-3.84c-.45-.28-2.26-1.34-2.73-1.59a4.28,4.28,0,0,0-4.23.4,13,13,0,0,0-4.59,5.14,5.83,5.83,0,0,0-1.45-1.24l-2.56-1.49c-1.84-1.07-4.24-1-6.87.55-5.57,3.21-10.11,11.64-10.43,19.14a13.25,13.25,0,0,0-4.35,1.64c-8.1,4.68-14.67,17.23-14.67,28,0,5.73,1.85,9.82,4.79,11.7.51.32,2.48,1.45,3,1.71,2.55,1.41,5.86,1.24,9.47-.84a21,21,0,0,0,4-3.09,7,7,0,0,0,1.91,1.66l2.54,1.46c2.19,1.28,5,1.18,8.19-.63,4.17-2.41,7.86-7.26,10.13-12.76a7.28,7.28,0,0,0,5.65-1c5.28-3.05,9.64-10.78,10.35-18,4.78-4,8.37-11.76,8.37-18.51,0-4.23-1.41-7.2-3.64-8.47Z" style="fill:#fff;opacity:0.4"></path><path d="M130.21,96.47a26.8,26.8,0,0,0-3.64,11.87L124,106.87A26.69,26.69,0,0,1,127.67,95Z" style="fill:#BA68C8"></path><path d="M130.21,96.47a26.8,26.8,0,0,0-3.64,11.87L124,106.87A26.69,26.69,0,0,1,127.67,95Z" style="opacity:0.1"></path><path d="M124.74,102.15a23.68,23.68,0,0,0-.72,4.72l2.55,1.47a23.68,23.68,0,0,1,.72-4.72Z" style="opacity:0.2"></path><path d="M112.42,149.77c-.72-.41-2.2-1.26-2.63-1.54-2.94-1.87-4.79-6-4.79-11.69a35.58,35.58,0,0,1,3.35-14.39l2.55,1.47a35.58,35.58,0,0,0-3.35,14.4C107.55,143.8,109.43,147.91,112.42,149.77Z" style="fill:#BA68C8"></path><path d="M112.42,149.77c-.72-.41-2.2-1.26-2.63-1.54-2.94-1.87-4.79-6-4.79-11.69a35.58,35.58,0,0,1,3.35-14.39l2.55,1.47a35.58,35.58,0,0,0-3.35,14.4C107.55,143.8,109.43,147.91,112.42,149.77Z" style="opacity:0.1"></path><path d="M109.79,148.23c.43.28,1.91,1.13,2.63,1.54-3-1.86-4.87-6-4.87-11.75,0-.52,0-1,0-1.57L105.05,135c0,.52,0,1,0,1.56C105,142.27,106.85,146.36,109.79,148.23Z" style="opacity:0.2"></path><path d="M130.43,149c-.62-.37-1.89-1.1-2.26-1.31a7,7,0,0,1-1.91-1.66c.37-.35.74-.72,1.1-1.11A8.23,8.23,0,0,0,130.43,149Z" style="fill:#BA68C8"></path><path d="M130.43,149c-.62-.37-1.89-1.1-2.26-1.31a7,7,0,0,1-1.91-1.66c.37-.35.74-.72,1.1-1.11A8.23,8.23,0,0,0,130.43,149Z" style="opacity:0.30000000000000004"></path><path d="M149,89.61a17.23,17.23,0,0,0-2,3.65,8.52,8.52,0,0,0-1.68-3.35,16.27,16.27,0,0,1,1.09-1.76Z" style="fill:#BA68C8"></path><path d="M149,89.61a17.23,17.23,0,0,0-2,3.65,8.52,8.52,0,0,0-1.68-3.35,16.27,16.27,0,0,1,1.09-1.76Z" style="opacity:0.1"></path><path d="M173.4,98.23c0-7.7-4.68-11.24-10.46-7.91a16.88,16.88,0,0,0-4.12,3.5,13.52,13.52,0,0,0,.26-2.58c0-4.87-3-7.1-6.61-5a14.16,14.16,0,0,0-5.46,7c-1.32-4.93-5.3-6.78-10-4.06-5.57,3.21-10.11,11.64-10.44,19.15a13,13,0,0,0-4.35,1.63c-8.1,4.68-14.67,17.23-14.67,28s6.57,15.77,14.67,11.09a22.37,22.37,0,0,0,5.14-4.2c1.88,4.94,6.34,6.6,11.54,3.6,4.17-2.41,7.86-7.26,10.13-12.76a7.28,7.28,0,0,0,5.65-1c5.28-3.05,9.64-10.78,10.35-18C169.81,112.69,173.4,105,173.4,98.23Z" style="fill:#BA68C8"></path><path d="M161.74,91.1a18.07,18.07,0,0,0-2.92,2.72,13.46,13.46,0,0,0,.27-2.58,9.49,9.49,0,0,0-.11-1.45l.22-.15Z" style="fill:#BA68C8"></path><path d="M161.74,91.1a18.07,18.07,0,0,0-2.92,2.72,13.46,13.46,0,0,0,.27-2.58,9.49,9.49,0,0,0-.11-1.45l.22-.15Z" style="opacity:0.1"></path><path d="M127.3,122.69a6.37,6.37,0,0,0-2.89,5c0,1.84,1.29,2.59,2.89,1.67a6.39,6.39,0,0,0,2.88-5C130.18,122.52,128.89,121.77,127.3,122.69Z" style="fill:#fafafa"></path><path d="M140.05,115.3a6.39,6.39,0,0,0-2.88,5c0,1.84,1.29,2.59,2.88,1.67a6.37,6.37,0,0,0,2.89-5C142.94,115.12,141.65,114.38,140.05,115.3Z" style="fill:#fafafa"></path><path d="M152.81,107.94a6.39,6.39,0,0,0-2.88,5c0,1.84,1.29,2.59,2.88,1.67a6.37,6.37,0,0,0,2.89-5C155.7,107.77,154.41,107,152.81,107.94Z" style="fill:#fafafa"></path></g></g><g id="freepik--Table--inject-61"><g id="freepik--table--inject-61"><g id="freepik--table--inject-61"><path d="M57.53,390.43a2.46,2.46,0,0,1,1.45-2,7.71,7.71,0,0,1,7,0,2.43,2.43,0,0,1,1.44,2L66,418.92h0a1.73,1.73,0,0,1-1,1.39,5.42,5.42,0,0,1-4.93,0,1.74,1.74,0,0,1-1-1.39h0Z" style="fill:#455a64"></path><path d="M66,388.41a7.71,7.71,0,0,0-7,0,2.46,2.46,0,0,0-1.45,2l.62,12.17a50,50,0,0,0,8.28,6.88l1-19.06A2.43,2.43,0,0,0,66,388.41Z" style="fill:#263238"></path><path d="M182,390.43a2.44,2.44,0,0,0-1.44-2,7.71,7.71,0,0,0-7,0,2.46,2.46,0,0,0-1.45,2l1.45,28.5h0a1.74,1.74,0,0,0,1,1.39,5.42,5.42,0,0,0,4.93,0,1.74,1.74,0,0,0,1-1.39h0Z" style="fill:#455a64"></path><path d="M180.58,388.41a7.71,7.71,0,0,0-7,0,2.46,2.46,0,0,0-1.45,2l1,19.5a51.09,51.09,0,0,0,8.22-6.59l.65-12.9A2.44,2.44,0,0,0,180.58,388.41Z" style="fill:#263238"></path><path d="M125.05,412.24a2.43,2.43,0,0,0-1.45-2,7.71,7.71,0,0,0-7,0,2.44,2.44,0,0,0-1.44,2l1.44,28.5h0a1.75,1.75,0,0,0,1,1.39,5.49,5.49,0,0,0,4.93,0,1.77,1.77,0,0,0,1-1.39h0Z" style="fill:#455a64"></path><path d="M124.47,423.67l.58-11.43a2.43,2.43,0,0,0-1.45-2,7.71,7.71,0,0,0-7,0,2.44,2.44,0,0,0-1.44,2l.58,11.43C118.66,423.78,121.57,423.78,124.47,423.67Z" style="fill:#263238"></path><path d="M190.81,372.6h-.06c0-10.45-6.84-20.89-20.64-28.86-27.61-15.94-72.38-15.94-100,0-13.81,8-20.66,18.41-20.64,28.86h-.07v5.61h0c.17,10.31,7.08,20.59,20.71,28.46,27.61,15.93,72.37,15.93,100,0,13.63-7.87,20.54-18.15,20.7-28.46h0Z" style="fill:#BA68C8"></path><path d="M190.81,372.6h-.06c0-10.45-6.84-20.89-20.64-28.86-27.61-15.94-72.38-15.94-100,0-13.81,8-20.66,18.41-20.64,28.86h-.07v5.61h0c.17,10.31,7.08,20.59,20.71,28.46,27.61,15.93,72.37,15.93,100,0,13.63-7.87,20.54-18.15,20.7-28.46h0Z" style="opacity:0.2"></path><path d="M70.13,343.74c-27.61,15.94-27.61,41.78,0,57.72s72.37,15.94,100,0,27.61-41.78,0-57.72S97.73,327.8,70.13,343.74Z" style="fill:#BA68C8"></path></g><g id="freepik--Pot--inject-61"><g style="opacity:0.1"><path d="M97.53,365c6.19,3.57,6.19,9.37,0,12.94s-16.23,3.58-22.43,0-6.19-9.37,0-12.94S91.34,361.45,97.53,365Z"></path></g><path d="M76.45,372.3c-5.39-5.5-8.55-19.24-3.3-23.61H99.92c5.25,4.37,2.09,18.1-3.3,23.6l-.15.16-.18.18-.49.43-.13.1a4.4,4.4,0,0,1-.41.31c-.23.16-.46.31-.69.44a17.71,17.71,0,0,1-16.07,0h0c-.23-.13-.47-.28-.7-.44l-.38-.29-.16-.13-.47-.41-.21-.21Z" style="fill:#ebebeb"></path><path d="M97.59,346.94c6.11,3.52,6.11,9.24,0,12.76s-16,3.53-22.11,0-6.11-9.24,0-12.76S91.49,343.41,97.59,346.94Z" style="fill:#fafafa"></path><path d="M93.26,349.44c3.72,2.14,3.72,5.62,0,7.76a14.83,14.83,0,0,1-13.45,0c-3.72-2.14-3.72-5.62,0-7.76A14.83,14.83,0,0,1,93.26,349.44Z" style="fill:#ebebeb"></path><path d="M79.81,353.12a14.89,14.89,0,0,1,13.45,0,6.29,6.29,0,0,1,2.23,2,6.11,6.11,0,0,1-2.23,2,14.83,14.83,0,0,1-13.45,0,6.11,6.11,0,0,1-2.23-2A6.29,6.29,0,0,1,79.81,353.12Z" style="fill:#e0e0e0"></path><path d="M92.44,355.16a30.38,30.38,0,0,0,4.87-6.47c2.24-4,2.66-9.29,1.5-9.95s-5.89,4.65-5.89,4.65a29.21,29.21,0,0,0,.5-6.78c-.2-3.54-1.07-6.75-2.08-7.4s-3.28,3.81-4.25,7.05-1.56,5.89-1.56,5.89a49.72,49.72,0,0,0-1.74-7.44c-1.18-3.36-2.25-4.12-3.08-3.79s-1.37,1.9-1.62,6.38a44.29,44.29,0,0,0,.2,6.4s-1.66-1.83-3.52-3.61c-2-2-2.9-2.22-3.48-1.85s-.74,3.41,2.41,9.1a31.7,31.7,0,0,0,5.94,7.82S85,358,92.44,355.16Z" style="fill:#BA68C8"></path><g style="opacity:0.30000000000000004"><path d="M92.44,355.16a30.38,30.38,0,0,0,4.87-6.47c2.24-4,2.66-9.29,1.5-9.95s-5.89,4.65-5.89,4.65a29.21,29.21,0,0,0,.5-6.78c-.2-3.54-1.07-6.75-2.08-7.4s-3.28,3.81-4.25,7.05-1.56,5.89-1.56,5.89a49.72,49.72,0,0,0-1.74-7.44c-1.18-3.36-2.25-4.12-3.08-3.79s-1.37,1.9-1.62,6.38a44.29,44.29,0,0,0,.2,6.4s-1.66-1.83-3.52-3.61c-2-2-2.9-2.22-3.48-1.85s-.74,3.41,2.41,9.1a31.7,31.7,0,0,0,5.94,7.82S85,358,92.44,355.16Z"></path></g></g></g></g><g id="freepik--Character--inject-61"><g id="freepik--Window--inject-61"><polygon points="268.24 60.48 438.84 158.98 438.84 350.58 268.24 252.8 268.24 60.48" style="fill:#263238"></polygon><polygon points="207.31 283.29 207.31 25.3 268.24 60.48 268.24 248.11 211.64 285.79 207.31 283.29" style="fill:#e0e0e0"></polygon><path d="M207.31,274.22v4.07a9.6,9.6,0,0,0,4.33,7.5L433.69,414a3.44,3.44,0,0,0,5.16-3V337.54a9.59,9.59,0,0,0-4.33-7.5l-161.94-93.5a9.64,9.64,0,0,0-8.66,0l-52.27,30.18A9.62,9.62,0,0,0,207.31,274.22Z" style="fill:#BA68C8"></path><path d="M207.31,274.22v4.07a9.6,9.6,0,0,0,4.33,7.5L433.69,414a3.44,3.44,0,0,0,5.16-3V337.54a9.59,9.59,0,0,0-4.33-7.5l-161.94-93.5a9.64,9.64,0,0,0-8.66,0l-52.27,30.18A9.62,9.62,0,0,0,207.31,274.22Z" style="opacity:0.30000000000000004"></path><path d="M263.91,236.54l-52.27,30.18c-2.39,1.38-2.39,3.62,0,5L434.52,400.4c2.39,1.38,4.33.26,4.33-2.5V337.54a9.58,9.58,0,0,0-4.33-7.5l-161.94-93.5A9.57,9.57,0,0,0,263.91,236.54Z" style="fill:#BA68C8"></path><path d="M263.91,236.54l-52.27,30.18c-2.39,1.38-2.39,3.62,0,5L434.52,400.4c2.39,1.38,4.33.26,4.33-2.5V337.54a9.58,9.58,0,0,0-4.33-7.5l-161.94-93.5A9.57,9.57,0,0,0,263.91,236.54Z" style="opacity:0.15"></path><g id="freepik--Stars--inject-61"><path d="M289.21,96.94a1.56,1.56,0,1,1-1.56-1.56A1.56,1.56,0,0,1,289.21,96.94Z" style="fill:#f0f0f0"></path><path d="M295.62,97.71a.91.91,0,1,1-.91-.91A.91.91,0,0,1,295.62,97.71Z" style="fill:#fafafa"></path><path d="M362.57,190.73a1.56,1.56,0,1,1,.16,2.2A1.56,1.56,0,0,1,362.57,190.73Z" style="fill:#f0f0f0"></path><path d="M358.24,185.94a.92.92,0,0,1,1.29-.09.9.9,0,0,1,.09,1.28.92.92,0,0,1-1.29.09A.9.9,0,0,1,358.24,185.94Z" style="fill:#fafafa"></path><path d="M406.31,286.74a1.27,1.27,0,1,1-.68,1.67A1.27,1.27,0,0,1,406.31,286.74Z" style="fill:#fafafa"></path><path d="M416,278.14a2.07,2.07,0,1,1-1.11,2.71A2.07,2.07,0,0,1,416,278.14Z" style="fill:#fafafa"></path><path d="M414,165.86a1.51,1.51,0,1,1-1.5-1.5A1.51,1.51,0,0,1,414,165.86Z" style="fill:#fafafa"></path><path d="M409.53,170a.9.9,0,1,1-.9-.9A.9.9,0,0,1,409.53,170Z" style="fill:#fafafa"></path><path d="M407,164.36a.72.72,0,0,1-.72.72.73.73,0,0,1-.73-.72.73.73,0,0,1,.73-.73A.73.73,0,0,1,407,164.36Z" style="fill:#fafafa"></path><circle cx="387.27" cy="237.11" r="0.89" style="fill:#fafafa"></circle><path d="M392.35,225.45l2,2,2.77-.53a.32.32,0,0,1,.34.46l-1.26,2.52,1.36,2.47a.32.32,0,0,1-.33.47l-2.79-.42-1.93,2.06a.32.32,0,0,1-.55-.17l-.46-2.78-2.55-1.2a.32.32,0,0,1,0-.58l2.5-1.29.35-2.8A.32.32,0,0,1,392.35,225.45Z" style="fill:#fafafa"></path><path d="M312.49,198.87l.32,2.24,2,1a.26.26,0,0,1,0,.46l-2,1-.32,2.24a.26.26,0,0,1-.44.14l-1.58-1.62-2.23.38a.26.26,0,0,1-.27-.37l1-2-1-2a.25.25,0,0,1,.27-.37l2.23.38,1.58-1.61A.26.26,0,0,1,312.49,198.87Z" style="fill:#fafafa"></path><path d="M318.4,137.16l2.51,2.49,3.48-.67a.4.4,0,0,1,.43.58l-1.58,3.16,1.7,3.09a.4.4,0,0,1-.41.59l-3.49-.53-2.42,2.58a.4.4,0,0,1-.69-.21l-.58-3.48-3.2-1.51a.4.4,0,0,1,0-.72l3.14-1.62.44-3.51A.4.4,0,0,1,318.4,137.16Z" style="fill:#fafafa"></path><path d="M328.65,142.43a.88.88,0,1,1-.88-.87A.87.87,0,0,1,328.65,142.43Z" style="fill:#fafafa"></path></g></g><path id="freepik--shadow--inject-61" d="M306,309.46a8.91,8.91,0,0,1,.89-2.11,3.4,3.4,0,0,1,1.42-1.44c1.47-.69,3.24,1,4.4,1.67,1.9,1.14,3.86,2.18,5.87,3.14,6.39,3,13.12,5.32,19.68,8a46.87,46.87,0,0,1,10.29,5.37c2.91,2.14,4.8,5.12,7.82,7.1a16.34,16.34,0,0,0,5.81,2.38c2.26.45,4.61.43,6.8,1.13,4,1.27,6.86,4.73,10.66,6.4,3.19,1.4,6.66,1.38,10.07,1.43a16.43,16.43,0,0,0,9.3-2.71,4.84,4.84,0,0,0,1.47-1.34,2.13,2.13,0,0,0,.29-1.92,3.19,3.19,0,0,0-1.53-1.41c-4.42-2.48-9.29-3.49-13.8-5.64-5.34-2.54-10.79-4.86-16-7.64-9-4.78-16.84-12.27-24.95-18.41C325.37,289,314.53,279.85,299.3,269.9c-16.68-10.91-32.79-23-41.62-40.85-9.69-19.61-8.62-42.53-9.94-64.37-.31-5.23.23-11.41-1-16.45-2.44-10.19-16-9.17-23.67-5.62-5.37,2.49-9,7.11-11.24,12.61-3.62,8.88-3.61,20-1.36,28.17.66,2.38,1.51,4.7,2.24,7.06.78,2.56.5,4.39.06,7-.85,5.18-2,10.31-3.19,15.42-2.31,9.78-5,19.44-6,29.47-.31,2.84-.38,5.67,1,8.25,1.29,2.41,3.72,3.42,6.25,4.18l5.37,1.61c3.12.94,4.1,3.49,4.83,6.46a61.37,61.37,0,0,0,4.08,12,42.85,42.85,0,0,0,9.69,13c10.1,9.24,23.85,13.05,36.48,18.32,3.53,1.47,6.71,3.12,9,6.29,2.1,2.94,3.31,6.39,4.9,9.6.82,1.64,1.86,3.34,3.56,4a8.45,8.45,0,0,0,3,.43,27.09,27.09,0,0,0,6-.31,9.11,9.11,0,0,0,5.22-2.83C306.12,319.72,304.62,314,306,309.46Z" style="opacity:0.1"></path><g id="freepik--character--inject-61"><path d="M282.89,193.62c-.8-.72-1.75-1.26-2.53-2a6.67,6.67,0,0,1-2-4c-.2-1.68.25-3.39.13-5.08a7.85,7.85,0,0,0-3.1-5.62c-1.95-1.47-4.4-1.58-6.47-2.8a7.05,7.05,0,0,1-2.93-3.16,10.64,10.64,0,0,1-.49-5.4,45,45,0,0,0-.17-11.6,25.46,25.46,0,0,0-5.65-12,24,24,0,0,0-20.05-8.74l-2.06.14a23.52,23.52,0,0,0-9.65,2.8q-.56.3-1.08.63l-.21.12c-.37.24-.74.48-1.11.74s-.74.55-1.1.83l0,0a23.67,23.67,0,0,0-8.25,13.1c-2.34,8.45-2.26,20.63,1.86,31.41,2.55,6.69,7.48,12.27,12.49,16.39,12.81,10.51,35.57,16,49.09,7.54C284.38,204,287.69,198,282.89,193.62Z" style="fill:#455a64"></path><path d="M253.53,145.26c2.71,1.54,8,6.16,8,17.74,0,12-3.92,15-5.85,15.88s-5.7.43-9.37-.12l.09,6s4.08,1.57,4.16,5.25c.08,3.31-5.67,4.51-10.55,2.92a16,16,0,0,1-8.15-6.52l-.76-17s-3.25,2.46-6.27.54c-4.08-2.6-4.51-7.7-2.21-10.12S230,158,231,161.3c0,0,5.91,1.68,13.6-2.7A17.54,17.54,0,0,0,253.53,145.26Z" style="fill:#ffa8a7"></path><circle cx="250.36" cy="172.27" r="0.77" style="fill:#b16668"></circle><path d="M245.43,155.34l-2.36,2.82a1.94,1.94,0,0,1-.23-2.67A1.81,1.81,0,0,1,245.43,155.34Z" style="fill:#263238"></path><path d="M260.86,156.42,258.08,154a1.86,1.86,0,0,1,2.59-.29A1.94,1.94,0,0,1,260.86,156.42Z" style="fill:#263238"></path><path d="M259.46,159.19a1.51,1.51,0,1,1-1.61-1.47A1.55,1.55,0,0,1,259.46,159.19Z" style="fill:#263238"></path><path d="M247.82,160.39a1.5,1.5,0,1,1-1.6-1.47A1.52,1.52,0,0,1,247.82,160.39Z" style="fill:#263238"></path><polygon points="252.63 158.6 253.01 167.66 257.75 166.1 252.63 158.6" style="fill:#f28f8f"></polygon><path d="M246.28,178.76c-3.05-.3-9.18-2-10.56-4.08,0,0,.07,1.4,2.1,3.26s8.5,3.15,8.5,3.15Z" style="fill:#f28f8f"></path><path d="M251,184.38s6.37-1.5,9.88,1c1.19.85,3.66,3.18,5.39,9.26,3.36,11.81,6.19,30.21,6.19,30.21s1.75,13.81-7.05,14.94S251,184.38,251,184.38Z" style="fill:#ffa8a7"></path><polygon points="290.42 375.1 302.49 375.1 303.35 353.55 290.42 354.43 290.42 375.1" style="fill:#ffa8a7"></polygon><path d="M290.55,392.84a56.18,56.18,0,0,0-1.9-8c-.83-2.32-3.38-4.94-3.47-7.37-.06-1.33,1.08-3.13,2.53-5.05.57-.76,1.07-1.36,1.52-2.09a8.45,8.45,0,0,0,1.21-4.56c0-1.88,0-4,0-4,1.05.6,10.18,5.23,12.35,6.29,0,3.1,0,8.22.36,9.91,1.76,7.59,3.24,14.92,7.22,21.69.88,1.5,1.8,3.46.73,4.81a3.74,3.74,0,0,1-1.81,1.09,13.23,13.23,0,0,1-7.33.22c-4.31-.88-9.23-4.52-10.46-8.88C291.11,395.6,290.82,394.23,290.55,392.84Z" style="fill:#ffa8a7"></path><path d="M310.35,399.7A56.28,56.28,0,0,1,307,393h0c1.17,3-3,4-6.83,1.1s-5.26-8.56-7-12.26-4.68-7.37-3.62-12.06h0a19.09,19.09,0,0,1-1.84,2.65c-1.45,1.92-2.59,3.72-2.53,5.05.09,2.43,2.64,5.05,3.47,7.37a56.18,56.18,0,0,1,1.9,8c.27,1.39.56,2.76.93,4.1,1.23,4.36,6.15,8,10.46,8.88a13.23,13.23,0,0,0,7.33-.22,3.74,3.74,0,0,0,1.81-1.09C312.15,403.16,311.23,401.2,310.35,399.7Z" style="fill:#263238"></path><path d="M369.69,330.74a13.08,13.08,0,0,0-2.21-.39c-2.74-.24-6-.45-7.82-2.77s-1.17-4.84-.73-7.57c.68-4.24-.63-6.56-2.89-10.91-.12-.22.52-1.31.64-1.53a1,1,0,0,1,.6-.37,32.34,32.34,0,0,1,9-1.21,2.18,2.18,0,0,1,1,.16c.36.17,1-.52,1.15-.16,3.79,9.07,12.5,15.9,20.89,20.54a21.27,21.27,0,0,0,4.65,2c1.22.33,2.48.47,3.69.81a3.08,3.08,0,0,1,2.29,1.73c.34,1.08-.42,2.18-1.23,3A16.15,16.15,0,0,1,388,338.4c-4.49.17-7.86-1.64-11.46-4.14A21.92,21.92,0,0,0,369.69,330.74Z" style="fill:#ffa8a7"></path><path d="M388,338.4a16.15,16.15,0,0,0,10.66-4.35c.81-.78,1.57-1.88,1.23-3a3.08,3.08,0,0,0-2.29-1.73c-1.21-.34-2.47-.48-3.69-.81a16.74,16.74,0,0,1-3-1.15h0c1.67.87-1.07,3.13-5.76,2.45s-13.92-6.62-16.25-7.7-9.83-4-9.87-5.29h0a12.2,12.2,0,0,1-.12,3.15c-.44,2.73-1.19,5.17.73,7.57s5.08,2.53,7.82,2.77a13.08,13.08,0,0,1,2.21.39,21.92,21.92,0,0,1,6.86,3.52C380.15,336.76,383.52,338.57,388,338.4Z" style="fill:#263238"></path><path d="M272.41,236.47s15.55-.47,23.55-1c34.65-2.38,41.51-3.25,46,1.22,3.86,3.81,27.49,71.33,27.49,71.33-2.22,4.73-12.13,5.56-12.13,5.56s-16.24-24.39-23.46-37.68a142.54,142.54,0,0,1-6.88-16.2l-42.51,7.76c8,5.46,25.53,18.07,28.39,23,2.69,4.61-1.39,15.05-4.74,36.82-2.15,13.94-4.8,35.28-4.8,35.28-5.21,3.31-13.28-.69-13.28-.69s-3.3-26.55-3.19-37.68a87.56,87.56,0,0,1,2.5-21.07s-19.63-7.69-34.19-14c-17.34-7.54-24.81-16.66-27.93-31Z" style="fill:#455a64"></path><path d="M284.5,267.44,273,260s4.59-3.78,4.33-11.88a17.31,17.31,0,0,1-.21,11.39l5.17,3c13.59,1.05,44.7-2.81,44.7-2.81Z" style="fill:#37474f"></path><path d="M274.39,236.25l-8.08-5-1.15-4.74-.1-6.79c6-4,6-11.93,3.67-15.94-5.45-9.32-17.72-19.38-17.72-19.38l-4.64.35s2,1.05,2.67,4.68c.75,3.83-4.14,4.09-8.3,3s-5.68-3-8.91-6l-8,.71c3.84,4.13,2.83,10.26,1.42,17.53s-4.65,9.77-4.65,9.77v11.12s0,19,6.66,35.4c14.88,1.38,27.15-1.81,37.28-9C274.52,244.87,274.39,236.25,274.39,236.25Z" style="fill:#BA68C8"></path><g style="opacity:0.30000000000000004"><path d="M274.39,236.25l-8.08-5-1.15-4.74-.1-6.79c6-4,6-11.93,3.67-15.94-5.45-9.32-17.72-19.38-17.72-19.38l-4.64.35s2,1.05,2.67,4.68c.75,3.83-4.14,4.09-8.3,3s-5.68-3-8.91-6l-8,.71c3.84,4.13,2.83,10.26,1.42,17.53s-4.65,9.77-4.65,9.77v11.12s0,19,6.66,35.4c14.88,1.38,27.15-1.81,37.28-9C274.52,244.87,274.39,236.25,274.39,236.25Z"></path></g><path d="M234.16,219.35s2.52,4.2,9.93,4.37,11.86-4.13,12.94-7.9c0,0,.92,9-10.12,10.29C239.13,227,234.7,222.32,234.16,219.35Z" style="opacity:0.1"></path><path d="M260.65,240.87a6.32,6.32,0,0,1-2.35-.62c-1-.51-1.81-1.76-2.42-3.81-.52-1.74-1.23-5.48-.21-7.26,1.29-2.25,4.17-2,6.08-1.83l.66.05-.21,3-.71-.06c-1.08-.1-2.87-.25-3.2.33-.53,1.13.5,6.17,1.42,6.89a4.71,4.71,0,0,0,2.79.14l.78,2.92A8.7,8.7,0,0,1,260.65,240.87Z" style="fill:#e6e6e6"></path><path d="M262,224.21c.29-.92,1.28-1.76,3-2.36a19.79,19.79,0,0,1,13.74,1c1.6.83,2.46,1.8,2.62,2.74h.05c.22,6.18-1.37,13.22-3.83,17,0,0,0,.05,0,.08l0,.06h0a4.68,4.68,0,0,1-1.9,1.56,11.57,11.57,0,0,1-10.43-.72,4.74,4.74,0,0,1-1.68-1.82h0a.14.14,0,0,1,0-.06l-.05-.09c-1.91-4.09-2.5-11.28-1.43-17.37Z" style="fill:#f5f5f5"></path><path d="M265,221.85c-3.91,1.39-4.1,4.06-.41,6a19.74,19.74,0,0,0,13.74,1c3.91-1.39,4.1-4.06.41-6A19.79,19.79,0,0,0,265,221.85Z" style="fill:#fafafa"></path><path d="M266.21,223c-3.14.86-3.26,2.61-.27,3.9a19.4,19.4,0,0,0,11.08.77c3.14-.86,3.26-2.61.28-3.9A19.52,19.52,0,0,0,266.21,223Z" style="fill:#e6e6e6"></path><path d="M266,225.34a5.85,5.85,0,0,0-1.59.66,5.91,5.91,0,0,0,1.49.88,19.4,19.4,0,0,0,11.08.77,5.59,5.59,0,0,0,1.59-.66,5.39,5.39,0,0,0-1.48-.88A19.43,19.43,0,0,0,266,225.34Z" style="fill:#37474f"></path><path d="M213.13,250.49c14.13,1.65,48.59-.85,48.59-.85,5.06-.31,12.52-1,16-4.62,2.43-2.5,3.75-7.05,4.09-8.83.86-4.47-5.2.68-10.23.89a23.92,23.92,0,0,1-10-2.3,36.46,36.46,0,0,1-.27-4.42c-2.27,0-4.08,6.82-5.94,8.07-2.25,1.52-36-4.94-36-4.94l2.92-17.14s3.42-1.5,5.48-7.38,3.25-15.38-2.52-22c0,0-10.18-.84-12.94,4.89s-4.26,13.47-6.48,24.49-2.88,25.6-2.32,28.14C204.38,248.46,207.64,249.84,213.13,250.49Z" style="fill:#ffa8a7"></path></g></g></svg>