<svg xmlns="http://www.w3.org/2000/svg" viewBox="0 0 500 500"><g id="freepik--background-complete--inject-68"><rect y="382.4" width="500" height="0.25" style="fill:#ebebeb"></rect><path d="M237,337.8H43.92a5.71,5.71,0,0,1-5.71-5.71V60.66A5.71,5.71,0,0,1,43.92,55H237a5.71,5.71,0,0,1,5.71,5.71V332.09A5.71,5.71,0,0,1,237,337.8ZM43.92,55.2a5.47,5.47,0,0,0-5.46,5.46V332.09a5.47,5.47,0,0,0,5.46,5.46H237a5.47,5.47,0,0,0,5.46-5.46V60.66A5.47,5.47,0,0,0,237,55.2Z" style="fill:#ebebeb"></path><path d="M453.31,337.8H260.21a5.72,5.72,0,0,1-5.71-5.71V60.66A5.72,5.72,0,0,1,260.21,55h193.1A5.71,5.71,0,0,1,459,60.66V332.09A5.71,5.71,0,0,1,453.31,337.8ZM260.21,55.2a5.47,5.47,0,0,0-5.46,5.46V332.09a5.47,5.47,0,0,0,5.46,5.46h193.1a5.47,5.47,0,0,0,5.46-5.46V60.66a5.47,5.47,0,0,0-5.46-5.46Z" style="fill:#ebebeb"></path><rect x="423.9" y="398.49" width="26" height="0.25" style="fill:#ebebeb"></rect><rect x="311" y="401.21" width="45.03" height="0.25" style="fill:#ebebeb"></rect><rect x="362.11" y="389.21" width="60.79" height="0.25" style="fill:#ebebeb"></rect><rect x="52.46" y="390.89" width="19.23" height="0.25" style="fill:#ebebeb"></rect><rect x="80.6" y="390.89" width="55.29" height="0.25" style="fill:#ebebeb"></rect><rect x="169.67" y="395.11" width="74.47" height="0.25" style="fill:#ebebeb"></rect><rect x="331.48" y="87.29" width="92.52" height="125.9" style="fill:#e6e6e6"></rect><rect x="335.43" y="87.29" width="92.52" height="125.9" style="fill:#f5f5f5"></rect><rect x="325.29" y="111.07" width="112.8" height="78.34" transform="translate(531.93 -231.45) rotate(90)" style="fill:#fff"></rect><rect x="362.97" y="148.75" width="112.8" height="2.99" transform="translate(569.61 -269.12) rotate(90)" style="fill:#e6e6e6"></rect><rect x="338.36" y="113.56" width="86.66" height="8.79" style="fill:#f5f5f5"></rect><rect x="197.87" y="87.29" width="92.52" height="125.9" style="fill:#e6e6e6"></rect><rect x="201.82" y="87.29" width="92.52" height="125.9" style="fill:#f5f5f5"></rect><rect x="191.69" y="111.07" width="112.8" height="78.34" transform="translate(398.33 -97.84) rotate(90)" style="fill:#fff"></rect><rect x="229.36" y="148.75" width="112.8" height="2.99" transform="translate(436 -135.52) rotate(90)" style="fill:#e6e6e6"></rect><rect x="204.76" y="113.56" width="86.66" height="8.79" style="fill:#f5f5f5"></rect><rect x="64.27" y="87.29" width="92.52" height="125.9" style="fill:#e6e6e6"></rect><rect x="68.22" y="87.29" width="92.52" height="125.9" style="fill:#f5f5f5"></rect><rect x="58.08" y="111.07" width="112.8" height="78.34" transform="translate(264.72 35.76) rotate(90)" style="fill:#fff"></rect><rect x="95.76" y="148.75" width="112.8" height="2.99" transform="translate(302.4 -1.91) rotate(90)" style="fill:#e6e6e6"></rect><rect x="71.15" y="113.56" width="86.66" height="8.79" style="fill:#f5f5f5"></rect><circle cx="135.39" cy="316.83" r="14.09" transform="translate(-204.07 375.8) rotate(-76.72)" style="fill:#ebebeb"></circle><rect x="91.97" y="372.08" width="53.38" height="10.31" style="fill:#f5f5f5"></rect><rect x="97.22" y="287.01" width="42.89" height="85.07" style="fill:#f5f5f5"></rect><rect x="129.62" y="287.01" width="10.49" height="85.07" style="fill:#ebebeb"></rect><rect x="91.97" y="283.41" width="53.38" height="7.19" style="fill:#f5f5f5"></rect><path d="M118.66,263.24a23.1,23.1,0,0,0-23.09,23.1h46.19A23.1,23.1,0,0,0,118.66,263.24Z" style="fill:#f5f5f5"></path><path d="M118.66,261.16A2.64,2.64,0,0,0,116,263.8h5.28A2.64,2.64,0,0,0,118.66,261.16Z" style="fill:#f5f5f5"></path><circle cx="101.9" cy="316.83" r="14.09" transform="translate(-229.87 343.21) rotate(-76.72)" style="fill:#ebebeb"></circle><circle cx="98.75" cy="316.83" r="14.09" transform="translate(-195.11 162.63) rotate(-45)" style="fill:#f5f5f5"></circle><polygon points="211.53 283.42 206.7 283.42 194.43 382.4 199.26 382.4 211.53 283.42" style="fill:#e0e0e0"></polygon><polygon points="405.04 283.42 400.2 283.42 387.94 382.4 392.77 382.4 405.04 283.42" style="fill:#e0e0e0"></polygon><polygon points="239.81 332.91 244.65 332.91 250.78 382.4 245.94 382.4 239.81 332.91" style="fill:#e0e0e0"></polygon><polygon points="432.92 332.91 437.76 332.91 443.89 382.4 439.06 382.4 432.92 332.91" style="fill:#e0e0e0"></polygon><polygon points="414.11 325.22 198.11 325.22 190.96 274.79 406.96 274.79 414.11 325.22" style="fill:#f5f5f5"></polygon><polygon points="193.03 325.22 198.11 325.22 190.96 274.79 185.88 274.79 193.03 325.22" style="fill:#ebebeb"></polygon><polygon points="441.11 334.78 249.19 334.78 245.96 329.55 437.88 329.55 441.11 334.78" style="fill:#f5f5f5"></polygon><polygon points="194.65 334.78 249.19 334.78 245.96 329.55 191.42 329.55 194.65 334.78" style="fill:#ebebeb"></polygon></g><g id="freepik--Shadow--inject-68"><ellipse id="freepik--path--inject-68" cx="250" cy="416.24" rx="193.89" ry="11.32" style="fill:#f5f5f5"></ellipse></g><g id="freepik--Character--inject-68"><path d="M207.3,159.39a6.38,6.38,0,0,1,4.86,4.9c12.72,61.51-19.68,83.1-24.94,84.11S142.7,241.54,127,180.61a5.81,5.81,0,0,1,2.26-6.27l33.06-22.88a5.84,5.84,0,0,1,4.59-.88Z" style="fill:#7E57C2"></path><path d="M207.3,159.39a6.38,6.38,0,0,1,4.86,4.9c12.72,61.51-19.68,83.1-24.94,84.11S142.7,241.54,127,180.61a5.81,5.81,0,0,1,2.26-6.27l33.06-22.88a5.84,5.84,0,0,1,4.59-.88Z" style="opacity:0.4"></path><polygon points="232.6 396.37 240.11 394.17 236.99 376.19 229.49 378.4 232.6 396.37" style="fill:#ff8b7b"></polygon><polygon points="168.94 408.25 176.77 408.25 179.79 390.12 171.96 390.12 168.94 408.25" style="fill:#ff8b7b"></polygon><path d="M177.52,407.34H168a.69.69,0,0,0-.67.53l-1.54,7a1.14,1.14,0,0,0,1.14,1.39c3.07-.05,5.31-.23,9.18-.23,2.38,0,9.55.25,12.84.25s3.71-3.25,2.37-3.54c-6-1.32-10.58-3.14-12.51-4.88A1.91,1.91,0,0,0,177.52,407.34Z" style="fill:#263238"></path><path d="M239.8,393.31l-8.2,2.41a.69.69,0,0,0-.49.7l.48,7.11a1.14,1.14,0,0,0,1.48,1c2.94-.92,7.16-2.35,10.88-3.44,4.35-1.28,6.12-1.73,11.22-3.23,3.08-.9,3-4.27,1.64-4.18-6.25.45-9,1.3-15-.34A3.7,3.7,0,0,0,239.8,393.31Z" style="fill:#263238"></path><polygon points="236.99 376.19 238.6 385.46 231.09 387.67 229.48 378.4 236.99 376.19" style="opacity:0.2"></polygon><polygon points="171.96 390.12 179.79 390.12 178.23 399.47 170.4 399.47 171.96 390.12" style="opacity:0.2"></polygon><path d="M240.91,382.9l-12.72,3.73s-10.34-43.44-15.3-67.32c-1.51-7.27-4.59-17.28-8.25-27.95C200,277.92,194.5,263.44,190,252.12c-4.7-11.92-8.21-20.34-8.21-20.34l27.07-4.94s23.72,62.67,27.17,86.31C239.64,337.73,240.91,382.9,240.91,382.9Z" style="fill:#263238"></path><path d="M204.64,291.36C200,277.92,194.5,263.44,190,252.12l2.16-6.41C199.85,253,204.44,277.69,204.64,291.36Z" style="opacity:0.2"></path><path d="M194.28,229.51s4.47,66.93,3.7,89.85c-.85,25.1-16.12,78.3-16.12,78.3H167.53s6.29-47.77,8.09-72.19c2-27.82-7.91-91.11-7.91-91.11Z" style="fill:#263238"></path><polygon points="183.58 397.97 166.7 397.97 166.7 392.93 185.57 392.6 183.58 397.97" style="fill:#7E57C2"></polygon><polygon points="242.59 382.72 227.44 387.18 226 382.28 242.86 377.04 242.59 382.72" style="fill:#7E57C2"></polygon><path d="M180.11,408.71a2.37,2.37,0,0,0,1.51-.4,1.12,1.12,0,0,0,.38-1,.59.59,0,0,0-.32-.53c-.86-.44-3.39,1.11-3.67,1.29a.2.2,0,0,0-.09.19.21.21,0,0,0,.14.15A9.4,9.4,0,0,0,180.11,408.71Zm1.16-1.62a.55.55,0,0,1,.24,0,.24.24,0,0,1,.12.22.73.73,0,0,1-.25.67,3.8,3.8,0,0,1-2.78.15A7.3,7.3,0,0,1,181.27,407.09Z" style="fill:#7E57C2"></path><path d="M178.11,408.43l.08,0c.81-.44,2.38-2.16,2.22-3a.6.6,0,0,0-.59-.48,1,1,0,0,0-.79.23c-.91.75-1.1,3-1.11,3.1a.2.2,0,0,0,.09.17A.17.17,0,0,0,178.11,408.43Zm1.58-3.17h.08c.24,0,.26.14.27.19.1.52-.9,1.81-1.7,2.42a4.47,4.47,0,0,1,.92-2.45A.64.64,0,0,1,179.69,405.26Z" style="fill:#7E57C2"></path><path d="M240.85,394.13h0c1.28-.11,3.52-.45,4.13-1.42a1.07,1.07,0,0,0,.08-1,.59.59,0,0,0-.43-.38c-1.07-.25-3.63,2.18-3.92,2.45a.19.19,0,0,0,.12.32Zm3.64-2.42h.08a.2.2,0,0,1,.16.16.67.67,0,0,1,0,.63c-.34.55-1.56,1-3.3,1.19C242.42,392.78,243.87,391.68,244.49,391.71Z" style="fill:#7E57C2"></path><path d="M240.85,394.13a.22.22,0,0,0,.13,0c.78-.68,2.1-2.83,1.71-3.64-.09-.19-.3-.39-.8-.3a1.34,1.34,0,0,0-.9.6c-.73,1.06-.33,3.14-.32,3.23a.19.19,0,0,0,.13.14Zm1.3-3.63c.16,0,.2.08.21.11.23.49-.61,2.12-1.37,2.95a4.31,4.31,0,0,1,.31-2.61,1,1,0,0,1,.65-.44Z" style="fill:#7E57C2"></path><path d="M202.33,166.27c1,2,2.21,4.26,3.4,6.35s2.39,4.25,3.64,6.32a109.34,109.34,0,0,0,8,11.82l1,1.3a8.12,8.12,0,0,0,.7.76c.19.18.32.28.29.31a2.67,2.67,0,0,0-.51.07c-.25.07-.4.19-.35.21s.24-.07.47-.28a8.72,8.72,0,0,0,1.58-2,37.58,37.58,0,0,0,2.88-6.14c.42-1.12.86-2.25,1.24-3.41l1.1-3.45,5.82.8c0,1.41-.09,2.69-.22,4s-.26,2.66-.5,4a37.57,37.57,0,0,1-2.18,8.15,18.26,18.26,0,0,1-2.47,4.36,10.45,10.45,0,0,1-2.36,2.25,8.9,8.9,0,0,1-3.86,1.53,9.19,9.19,0,0,1-4.24-.43,11.53,11.53,0,0,1-3-1.56,17.75,17.75,0,0,1-2.12-1.78c-.34-.33-.51-.53-.77-.79l-.71-.75c-1-1-1.83-2-2.73-3s-1.72-2.08-2.51-3.15c-1.66-2.11-3.15-4.3-4.61-6.5s-2.81-4.46-4.1-6.75c-.64-1.15-1.27-2.3-1.88-3.47s-1.18-2.31-1.79-3.61Z" style="fill:#ff8b7b"></path><path d="M188.11,167.31c-1.34,7.36,15.51,25.25,15.51,25.25l13.87-11.18A95.14,95.14,0,0,0,205.3,165C198.37,157.86,189.58,159.23,188.11,167.31Z" style="fill:#7E57C2"></path><path d="M204.75,178.78a73.23,73.23,0,0,1,4.41,9.32l-5.54,4.46s-10-10.62-14-18.87C193.79,169.78,200.63,171.58,204.75,178.78Z" style="opacity:0.2"></path><path d="M153.07,167.85a175.78,175.78,0,0,1,7.8,25c1.4,6,2.49,11.65,3.34,16.84,2,12.15,2.78,21.51,3.49,24.62,6-1.09,28.78-5.24,41.19-7.51.72-44.88-12.61-66.48-12.61-66.48a82.59,82.59,0,0,0-10.07-.12c-.71,0-1.43.09-2.15.16a153.19,153.19,0,0,0-17.51,3.19c-1.1.25-2.21.54-3.28.84C157.82,166,153.07,167.85,153.07,167.85Z" style="fill:#7E57C2"></path><path d="M161.67,228.67a1,1,0,0,1-.41-1.92c.38-.16,37.31-17.07,31-67.85a1,1,0,1,1,2-.25c6.52,52.3-31.77,69.76-32.16,69.93A1,1,0,0,1,161.67,228.67Z" style="fill:#263238"></path><path d="M163.31,269.85h0a1.77,1.77,0,0,1-.51-2.46L294.21,66a1.79,1.79,0,0,1,2.46-.52h0a1.78,1.78,0,0,1,.52,2.46L165.77,269.34A1.77,1.77,0,0,1,163.31,269.85Z" style="fill:#7E57C2"></path><path d="M163.31,269.85h0a1.77,1.77,0,0,1-.51-2.46L294.21,66a1.79,1.79,0,0,1,2.46-.52h0a1.78,1.78,0,0,1,.52,2.46L165.77,269.34A1.77,1.77,0,0,1,163.31,269.85Z" style="fill:#fff;opacity:0.7000000000000001"></path><path d="M382.07,132.43c-1.61-1.27-3.28-2.63-5-4l.64-.77c1.68,1.4,3.34,2.76,4.94,4Z" style="fill:#7E57C2"></path><path d="M372.73,124.64c-4.94-4.3-9.8-8.79-14.49-13.12l.68-.74c4.69,4.33,9.54,8.81,14.46,13.1Z" style="fill:#7E57C2"></path><path d="M374.74,235c-53.84-13.91-79.49-71-131.49-87.77a4.25,4.25,0,0,1-2.25-6.36l45.4-69.57a4.29,4.29,0,0,1,4.79-1.75C344.74,85.31,370.34,143.9,425,158Z" style="fill:#7E57C2"></path><path d="M351,121.89l-1.05,3.66,2.71,2.5-3.36-.23-1,3.66-1-3.81-3.36-.23,2.72-2.12-1-3.81,2.71,2.5Z" style="fill:#fff"></path><path d="M316.82,174.22l-1.05,3.66,2.7,2.5-3.35-.23-1.05,3.66c-.35-1.27-.69-2.54-1-3.81l-3.35-.23,2.72-2.12-1-3.81,2.7,2.5Z" style="fill:#fff"></path><path d="M337.07,114.86c-.35,1.22-.7,2.43-1,3.65l2.73,2.46-3.38-.2c-.34,1.21-.69,2.43-1,3.65l-1-3.77q-1.69-.11-3.39-.18l2.74-2.15c-.35-1.25-.71-2.49-1.06-3.74l2.75,2.42Z" style="fill:#fff"></path><path d="M360.25,136l-2.74,2.14-2.73-2.46c.35,1.26.69,2.52,1,3.78l-2.73,2.13,3.38.2c.35,1.25.7,2.51,1.06,3.75.34-1.21.69-2.42,1-3.64l3.39.17-2.75-2.42C359.55,138.44,359.9,137.22,360.25,136Z" style="fill:#fff"></path><path d="M330.08,181.44c-.35,1.21-.69,2.43-1,3.64.92.82,1.83,1.62,2.76,2.43l-3.4-.17c-.35,1.21-.69,2.42-1,3.64l-1.05-3.76-3.38-.2,2.73-2.13c-.35-1.26-.7-2.52-1-3.78l2.73,2.46Z" style="fill:#fff"></path><path d="M307.55,160.87,304.82,163l-2.76-2.42c.36,1.24.71,2.49,1.07,3.74l-2.74,2.14,3.39.19c.35,1.25.69,2.51,1,3.77l1.05-3.65c1.12.06,2.25.13,3.37.21l-2.73-2.47Z" style="fill:#fff"></path><path d="M322,117.29l-1,3.61,2.79,2.37-3.42-.13c-.34,1.21-.68,2.41-1,3.62-.36-1.23-.73-2.46-1.1-3.69l-3.45-.08,2.76-2.18c-.37-1.22-.75-2.43-1.13-3.64.95.75,1.9,1.52,2.84,2.29Z" style="fill:#fff"></path><path d="M362.43,153.29l-2.76,2.17-2.79-2.37c.36,1.24.73,2.48,1.09,3.71L355.22,159l3.44.11c.36,1.23.74,2.45,1.11,3.66l1-3.6,3.46.07-2.84-2.3Z" style="fill:#fff"></path><path d="M345.3,178.85l-1,3.62,2.84,2.3-3.46-.07-1,3.6-1.11-3.66-3.44-.12,2.76-2.16c-.37-1.23-.73-2.47-1.09-3.71q1.38,1.2,2.79,2.37Z" style="fill:#fff"></path><path d="M305.47,143.33l-2.76,2.17-2.84-2.3c.38,1.21.76,2.43,1.13,3.65L298.24,149l3.45.09c.37,1.22.74,2.45,1.1,3.69l1-3.63,3.43.14L304.45,147Z" style="fill:#fff"></path><path d="M310.16,127.76c-.34,1.2-.67,2.4-1,3.6l2.83,2.32q-1.73-.06-3.45-.09l-1,3.6c-.37-1.22-.75-2.43-1.13-3.64l-3.48,0,2.78-2.2-1.17-3.59c1,.74,1.93,1.48,2.88,2.23Z" style="fill:#fff"></path><path d="M357.13,169.11c-.33,1.19-.67,2.39-1,3.59.95.75,1.91,1.5,2.87,2.23h-3.49c-.34,1.19-.67,2.39-1,3.58-.39-1.2-.77-2.4-1.15-3.61l-3.47-.07,2.77-2.18c-.38-1.22-.75-2.44-1.12-3.66.94.77,1.88,1.55,2.82,2.31Z" style="fill:#fff"></path><path d="M340.29,156.74c-5.05-4.59-10-9.26-15.09-13.85a1.25,1.25,0,0,0-1.95.23l-7.59,11.64a1.84,1.84,0,0,0,.3,2.29c5.05,4.58,10,9.26,15.09,13.85a1.25,1.25,0,0,0,1.95-.24L340.59,159A1.84,1.84,0,0,0,340.29,156.74Zm-11.2.79-2.42,4.73c-.85-.79-1.7-1.58-2.56-2.36l3.26-4a3.09,3.09,0,0,1,.2-2.85,2.09,2.09,0,0,1,3.29-.38,3.14,3.14,0,0,1,.5,3.88A2.08,2.08,0,0,1,329.09,157.53Z" style="fill:#fff"></path><path d="M339.84,154.12h0a1.64,1.64,0,0,1-.27-2l.72-1.1a8.78,8.78,0,0,0-.6-10.14c-2.86-3.38-7.38-3.1-9.65.37l-.85,1.31a1.1,1.1,0,0,1-1.73.2h0a1.63,1.63,0,0,1-.27-2c.22-.34.44-.68.67-1,2.8-4.29,8.14-5.42,12.14-2.18a11.84,11.84,0,0,1,2.43,15.11l-.86,1.31A1.1,1.1,0,0,1,339.84,154.12Z" style="fill:#fff"></path><path d="M160.87,192.89c1.4,6,2.49,11.65,3.34,16.84l4.35-17.17Z" style="opacity:0.2"></path><path d="M169,143.05c1.52,2,1.34,4.71-.39,6s-4.35.71-5.87-1.31-1.33-4.71.4-6S167.44,141,169,143.05Z" style="fill:#263238"></path><path d="M181.61,128.93c1.1,4.23.3,8.1-1.79,8.64s-4.67-2.44-5.78-6.67-.3-8.1,1.79-8.64S180.51,124.7,181.61,128.93Z" style="fill:#263238"></path><path d="M164.68,143.56c2.14,5.43,5.12,15.55,1.87,20A17.79,17.79,0,0,0,181,166.5c4.82-1,4.45-4.43,3-6.11-6.56-.35-7.25-5-6.95-9.62Z" style="fill:#ff8b7b"></path><path d="M169.75,146.5l7.35,4.27a18.08,18.08,0,0,0,0,3.21c-2.46.09-6.24-1.95-7-4.41A8.66,8.66,0,0,1,169.75,146.5Z" style="opacity:0.2"></path><path d="M160.56,137.21c3,7.16,4.42,11.5,9.43,14,7.54,3.71,15.4-2.81,14.58-10.73-.73-7.12-5.53-17.63-13.72-18A10.6,10.6,0,0,0,160.56,137.21Z" style="fill:#ff8b7b"></path><path d="M164.36,142.56c1.11-1.59,2.56-8.43.52-11.18,2-1,11.09-3.65,13-6.92,2.36-4,3.77-10.7-6-11.38s-5.64,6.84-5.64,6.84-18.71,4.83-13.87,10.41c-6.54,3.34,4.58,15.19,7.66,14,1.88-.75,3.65,3.17,4.6,1.38A2.68,2.68,0,0,0,164.36,142.56Z" style="fill:#263238"></path><path d="M159.94,145.51a7.34,7.34,0,0,0,5.29,1.94c2.59-.12,3.07-2.63,1.67-4.65-1.26-1.81-4.13-3.93-6.39-2.82S158.19,143.87,159.94,145.51Z" style="fill:#ff8b7b"></path><path d="M172.38,135.36c.21.6.69,1,1.08.84s.54-.73.33-1.33-.69-1-1.08-.83S172.17,134.77,172.38,135.36Z" style="fill:#263238"></path><path d="M179.12,133c.2.6.69,1,1.08.84s.53-.73.33-1.33-.7-1-1.09-.83S178.91,132.41,179.12,133Z" style="fill:#263238"></path><path d="M177.08,134.05a22.76,22.76,0,0,0,4.63,4.1,3.65,3.65,0,0,1-2.66,1.53Z" style="fill:#ff5652"></path><path d="M177.1,142.16a6.88,6.88,0,0,0,.79-.23.17.17,0,0,0,.11-.23.17.17,0,0,0-.23-.11,5,5,0,0,1-4.5-.5.18.18,0,1,0-.22.29A5.2,5.2,0,0,0,177.1,142.16Z" style="fill:#263238"></path><path d="M169.54,133.92a.37.37,0,0,0,.28-.25,3,3,0,0,1,1.83-2,.36.36,0,0,0,.26-.45.37.37,0,0,0-.45-.26,3.69,3.69,0,0,0-2.35,2.44.38.38,0,0,0,.24.47A.41.41,0,0,0,169.54,133.92Z" style="fill:#263238"></path><path d="M181.21,129.67a.36.36,0,0,0,.18-.1.36.36,0,0,0,0-.52,3.68,3.68,0,0,0-3.2-1.09.37.37,0,1,0,.15.72,2.88,2.88,0,0,1,2.53.89A.36.36,0,0,0,181.21,129.67Z" style="fill:#263238"></path><path d="M160.91,175.47l.63,3.4c.22,1.17.45,2.33.7,3.49.51,2.32,1,4.64,1.61,6.93A100.52,100.52,0,0,0,168,202.55c.19.54.44,1,.66,1.54l.57,1.29a5,5,0,0,0,1.14,1.47,25.09,25.09,0,0,0,5.07,3.41,109,109,0,0,0,13,5.57l-1.07,5.78a60.52,60.52,0,0,1-15.48-2.88,30.22,30.22,0,0,1-7.84-3.85,14.61,14.61,0,0,1-3.88-3.95l-.42-.66-.24-.45-.49-.89c-.32-.6-.67-1.2-.95-1.81a87.77,87.77,0,0,1-5.62-14.74c-.71-2.5-1.37-5-1.89-7.52-.27-1.26-.52-2.52-.76-3.79s-.43-2.51-.62-3.92Z" style="fill:#ff8b7b"></path><path d="M147.52,172.55c-4.09,6.27,1.82,24.73,1.82,24.73l19.79-4.06a106,106,0,0,0-4.94-17.52C160.43,165.86,152.47,165,147.52,172.55Z" style="fill:#7E57C2"></path><path d="M187.23,215.64l7.94-.34-3.78,9.26s-6.82-1.21-6.58-4.9Z" style="fill:#ff8b7b"></path><polygon points="200.51 219.07 197.03 226.58 191.39 224.56 195.17 215.3 200.51 219.07" style="fill:#ff8b7b"></polygon><path d="M231.46,180l2.4-5.74-10.13-1.66s-.82,5.24,3.11,8.12Z" style="fill:#ff8b7b"></path><polygon points="230.62 165.07 222.65 168.37 223.73 172.56 233.86 174.22 230.62 165.07" style="fill:#ff8b7b"></polygon></g></svg>