<svg width="220" height="74" viewBox="0 0 220 74" fill="none" xmlns="http://www.w3.org/2000/svg">
<!-- @MehtabAsHellic <mehtabasmoon@gmail.com> -->
<path d="M46.288 23.08C48.336 23.08 50.144 23.48 51.712 24.28C53.312 25.08 54.56 26.312 55.456 27.976C56.352 29.608 56.8 31.72 56.8 34.312V49H50.8V35.08C50.8 32.808 50.304 31.112 49.312 29.992C48.32 28.872 46.896 28.312 45.04 28.312C43.728 28.312 42.56 28.6 41.536 29.176C40.544 29.752 39.76 30.6 39.184 31.72C38.64 32.84 38.368 34.264 38.368 35.992V49H32.368V35.08C32.368 32.808 31.872 31.112 30.88 29.992C29.888 28.872 28.464 28.312 26.608 28.312C25.296 28.312 24.128 28.6 23.104 29.176C22.112 29.752 21.328 30.6 20.752 31.72C20.208 32.84 19.936 34.264 19.936 35.992V49H13.936V23.368H19.648V30.184L18.64 28.168C19.504 26.504 20.752 25.24 22.384 24.376C24.048 23.512 25.936 23.08 28.048 23.08C30.448 23.08 32.528 23.672 34.288 24.856C36.08 26.04 37.264 27.832 37.84 30.232L35.488 29.416C36.32 27.496 37.696 25.96 39.616 24.808C41.536 23.656 43.76 23.08 46.288 23.08ZM66.1105 58.648C64.8625 58.648 63.6145 58.44 62.3665 58.024C61.1185 57.608 60.0785 57.032 59.2465 56.296L61.6465 51.88C62.2545 52.424 62.9425 52.856 63.7105 53.176C64.4785 53.496 65.2625 53.656 66.0625 53.656C67.1505 53.656 68.0305 53.384 68.7025 52.84C69.3745 52.296 69.9985 51.384 70.5745 50.104L72.0625 46.744L72.5425 46.024L82.2385 23.368H87.9985L75.9985 51.064C75.1985 52.984 74.3025 54.504 73.3105 55.624C72.3505 56.744 71.2625 57.528 70.0465 57.976C68.8625 58.424 67.5505 58.648 66.1105 58.648ZM71.3905 49.912L59.8225 23.368H66.0625L75.4705 45.496L71.3905 49.912ZM99.3404 49.336C97.1964 49.336 95.1324 49.064 93.1484 48.52C91.1964 47.944 89.6444 47.256 88.4924 46.456L90.7964 41.896C91.9484 42.632 93.3244 43.24 94.9244 43.72C96.5244 44.2 98.1244 44.44 99.7244 44.44C101.612 44.44 102.972 44.184 103.804 43.672C104.668 43.16 105.1 42.472 105.1 41.608C105.1 40.904 104.812 40.376 104.236 40.024C103.66 39.64 102.908 39.352 101.98 39.16C101.052 38.968 100.012 38.792 98.8604 38.632C97.7404 38.472 96.6044 38.264 95.4524 38.008C94.3324 37.72 93.3084 37.32 92.3804 36.808C91.4524 36.264 90.7004 35.544 90.1244 34.648C89.5484 33.752 89.2604 32.568 89.2604 31.096C89.2604 29.464 89.7244 28.056 90.6524 26.872C91.5804 25.656 92.8764 24.728 94.5404 24.088C96.2364 23.416 98.2364 23.08 100.54 23.08C102.268 23.08 104.012 23.272 105.772 23.656C107.532 24.04 108.988 24.584 110.14 25.288L107.836 29.848C106.62 29.112 105.388 28.616 104.14 28.36C102.924 28.072 101.708 27.928 100.492 27.928C98.6684 27.928 97.3084 28.2 96.4124 28.744C95.5484 29.288 95.1164 29.976 95.1164 30.808C95.1164 31.576 95.4044 32.152 95.9804 32.536C96.5564 32.92 97.3084 33.224 98.2364 33.448C99.1644 33.672 100.188 33.864 101.308 34.024C102.46 34.152 103.596 34.36 104.716 34.648C105.836 34.936 106.86 35.336 107.788 35.848C108.748 36.328 109.516 37.016 110.092 37.912C110.668 38.808 110.956 39.976 110.956 41.416C110.956 43.016 110.476 44.408 109.516 45.592C108.588 46.776 107.26 47.704 105.532 48.376C103.804 49.016 101.74 49.336 99.3404 49.336ZM125.772 49.336C122.956 49.336 120.78 48.616 119.243 47.176C117.708 45.704 116.94 43.544 116.94 40.696V17.704H122.94V40.552C122.94 41.768 123.244 42.712 123.852 43.384C124.492 44.056 125.372 44.392 126.492 44.392C127.836 44.392 128.956 44.04 129.852 43.336L131.532 47.608C130.828 48.184 129.964 48.616 128.94 48.904C127.916 49.192 126.86 49.336 125.772 49.336ZM112.716 28.36V23.56H129.804V28.36H112.716Z" fill="white"/>
<path d="M163.936 49V23.368H169.648V30.424L168.976 28.36C169.744 26.632 170.944 25.32 172.576 24.424C174.24 23.528 176.304 23.08 178.768 23.08V28.792C178.512 28.728 178.272 28.696 178.048 28.696C177.824 28.664 177.6 28.648 177.376 28.648C175.104 28.648 173.296 29.32 171.952 30.664C170.608 31.976 169.936 33.944 169.936 36.568V49H163.936ZM186.907 58.648C185.659 58.648 184.411 58.44 183.163 58.024C181.915 57.608 180.875 57.032 180.043 56.296L182.443 51.88C183.051 52.424 183.739 52.856 184.507 53.176C185.275 53.496 186.059 53.656 186.859 53.656C187.947 53.656 188.827 53.384 189.499 52.84C190.171 52.296 190.795 51.384 191.371 50.104L192.859 46.744L193.339 46.024L203.035 23.368H208.795L196.795 51.064C195.995 52.984 195.099 54.504 194.107 55.624C193.147 56.744 192.059 57.528 190.843 57.976C189.659 58.424 188.347 58.648 186.907 58.648ZM192.187 49.912L180.619 23.368H186.859L196.267 45.496L192.187 49.912Z" fill="white"/>
<g filter="url(#filter0_i_13_2)">
<path d="M132.304 39.8179L149.688 49.7069C150.408 50.1165 151.294 49.9178 151.666 49.2633L159.307 35.8301C159.68 35.1755 159.398 34.3127 158.678 33.9031L157.374 33.1614L159.397 29.6056C161.504 25.9021 159.903 21.0036 155.829 18.6862C151.755 16.3687 146.727 17.4964 144.62 21.1999L142.598 24.7558L141.294 24.0141C140.574 23.6045 139.688 23.8031 139.316 24.4577L131.674 37.8909C131.302 38.5455 131.584 39.4082 132.304 39.8179ZM146.571 37.9961L145.671 39.5776C145.299 40.2322 144.413 40.4308 143.693 40.0212C142.973 39.6116 142.691 38.7489 143.063 38.0943L143.963 36.5128C143.641 35.852 143.625 35.084 143.992 34.4391C144.612 33.3498 146.091 33.0181 147.289 33.6997C148.487 34.3813 148.958 35.8221 148.338 36.9113C147.971 37.5563 147.303 37.9355 146.571 37.9961ZM147.228 22.6833C148.591 20.2869 151.845 19.5572 154.481 21.0567C157.117 22.5563 158.152 25.7258 156.789 28.1222L154.766 31.6781L145.205 26.2391L147.228 22.6833Z" fill="#C050E5"/>
</g>
<defs>
<filter id="filter0_i_13_2" x="131.51" y="17.4816" width="28.8154" height="36.4383" filterUnits="userSpaceOnUse" color-interpolation-filters="sRGB">
<feFlood flood-opacity="0" result="BackgroundImageFix"/>
<feBlend mode="normal" in="SourceGraphic" in2="BackgroundImageFix" result="shape"/>
<feColorMatrix in="SourceAlpha" type="matrix" values="0 0 0 0 0 0 0 0 0 0 0 0 0 0 0 0 0 0 127 0" result="hardAlpha"/>
<feOffset dy="4"/>
<feGaussianBlur stdDeviation="2"/>
<feComposite in2="hardAlpha" operator="arithmetic" k2="-1" k3="1"/>
<feColorMatrix type="matrix" values="0 0 0 0 0 0 0 0 0 0 0 0 0 0 0 0 0 0 0.2 0"/>
<feBlend mode="normal" in2="shape" result="effect1_innerShadow_13_2"/>
</filter>
</defs>
</svg>
